<svg xmlns="http://www.w3.org/2000/svg" width="18" height="18" viewBox="0 0 18 18">
  <g id="ico_star" transform="translate(40.531 -287.471)">
    <g id="그룹_18" data-name="그룹 18">
      <rect id="사각형_59" data-name="사각형 59" width="18" height="18" transform="translate(-40.531 287.471)" fill="none"/>
      <path id="패스_5" data-name="패스 5" d="M-34.625,286.682l1.812,3.67a.456.456,0,0,0,.342.249l4.05.589a.454.454,0,0,1,.251.774L-31.1,294.82a.455.455,0,0,0-.13.4l.692,4.033a.454.454,0,0,1-.659.479l-3.622-1.9a.456.456,0,0,0-.423,0l-3.622,1.9a.454.454,0,0,1-.659-.479l.692-4.033a.455.455,0,0,0-.131-.4l-2.931-2.857a.454.454,0,0,1,.252-.774l4.05-.589a.455.455,0,0,0,.342-.249l1.812-3.67A.454.454,0,0,1-34.625,286.682Z" transform="translate(3.4 3.142)" fill="#eb5e55"/>
    </g>
  </g>
</svg>
